<svg width="13" height="14" viewBox="0 0 13 14" fill="none" xmlns="http://www.w3.org/2000/svg">
<path d="M5.11276 1.01529V2.75071M8.29102 1.01529V2.75071M5.11276 10.8493V12.5847M8.29102 10.8493V12.5847M10.4099 5.0646H11.999M10.4099 7.95696H11.999M1.40479 5.0646H2.99392M1.40479 7.95696H2.99392M5.53652 10.8493H7.86725C8.75724 10.8493 9.20224 10.8493 9.54218 10.6602C9.84119 10.4938 10.0843 10.2283 10.2367 9.90176C10.4099 9.53054 10.4099 9.04458 10.4099 8.07265V5.52737C10.4099 4.55545 10.4099 4.06949 10.2367 3.69826C10.0843 3.37172 9.84119 3.10624 9.54218 2.93986C9.20224 2.75071 8.75725 2.75071 7.86725 2.75071H5.53652C4.64653 2.75071 4.20153 2.75071 3.8616 2.93986C3.56258 3.10624 3.31948 3.37172 3.16712 3.69826C2.99392 4.06949 2.99392 4.55545 2.99392 5.52737V8.07265C2.99392 9.04458 2.99392 9.53054 3.16712 9.90176C3.31948 10.2283 3.56258 10.4938 3.8616 10.6602C4.20153 10.8493 4.64653 10.8493 5.53652 10.8493Z" stroke="#333333" stroke-linecap="round" stroke-linejoin="round"/>
</svg>
